<svg id="Layer_1" data-name="Layer 1" xmlns="http://www.w3.org/2000/svg" viewBox="0 0 841.2 445.43"><defs><style>.cls-1{fill:#3f3f3f;}.cls-2{fill:#3fc2fc;}.cls-3{fill:#3fc0f9;}.cls-4{fill:#3fc1fa;}.cls-5{fill:#3fc1fb;}.cls-6{fill:#3fbff9;}.cls-7{fill:#3ebef6;}.cls-8{fill:#3898c1;}.cls-9{fill:#3491b9;}</style></defs><title>flixit</title><path class="cls-1" d="M294.6,606.9h841.2c-.1.2-.19.57-.3.57-.8,0-1.6,0-2.4,0q-417.9,0-835.8,0C296.42,607.46,295.27,608.15,294.6,606.9Z" transform="translate(-294.6 -162.22)"/><path class="cls-2" d="M693.11,203.73c-2.93-3.18-6.7-3.76-10.69-3.71A98.63,98.63,0,0,0,662,202.9c-19,4.29-37.56,10.34-56,16.63-14.85,5.07-29.68,10.18-44.56,15.16a6.75,6.75,0,0,0-4.26,3.74c-9.82,19.81-18.51,40.11-27,60.53q-11.28,27.29-22.69,54.53c-.37.91-.72,1.83-1.33,3.41,1.49-.53,2.46-.86,3.42-1.21,11.44-4.19,22.83-8.57,34.36-12.51,8.33-2.85,16.92-4.92,25.84-4.6a25.77,25.77,0,0,1,7.88,1.5,12,12,0,0,1,8.1,9.95,26,26,0,0,1-.48,10.66c-3.09-3.38-6.72-3-10.45-2.36-10.19,1.87-19.87,5.42-29.39,9.31-17.39,7.11-34.65,14.54-52,21.77a5.28,5.28,0,0,0-2.83,3.23c-8.26,18.65-17,37.07-26.48,55.13a276.34,276.34,0,0,1-26,41.34c-6.46,8.34-13.66,15.94-22.48,21.86-5.87,3.94-12.2,6.46-19.42,5.82-2.34-.21-4.65-.82-7-1.24.1-.59.08-.87.17-.91,5.25-2.26,8.88-6.38,12.22-10.79,6.54-8.65,11.7-18.12,16.56-27.78,8.86-17.6,16.31-35.83,23.94-54q2.67-6.36,5.29-12.74c.36-.88.65-1.79,1.14-3.16-1.48.28-2.43.43-3.37.64-13.38,3-26.74,3.44-40.05-.37a41.33,41.33,0,0,1-18.09-10.17c-5.91-5.83-7.66-12.87-6.5-20.88,1.47-10.17,7-17.71,15.26-23.38s17.89-8.37,27.86-9.33a66.93,66.93,0,0,1,34,5.09,36.75,36.75,0,0,1,10,6.48c.35.32.77.58,1.49,1.12.59-1.32,1.1-2.46,1.59-3.62,9.23-21.59,18.23-43.29,27.77-64.75,5.35-12,11.59-23.7,17.43-35.53.42-.85.85-1.69,1.63-3.22-2.05.53-3.37.84-4.68,1.21a467.28,467.28,0,0,1-46.38,10.91,148.54,148.54,0,0,1-28.32,2.66c-8.06-.12-16-.91-23.4-4.36-9-4.17-13.93-11.1-14.39-21.06a43.89,43.89,0,0,1,1.08-12.58c.4.35.7.49.81.72,3.11,6.33,8.74,8.76,15.25,9.71,7.48,1.1,15,.63,22.42-.29,18.32-2.27,36-7.19,53.68-12.43,17-5,33.81-10.41,50.72-15.6a10.66,10.66,0,0,0,4.53-2.75c5.09-5,10.68-9.36,17.56-11.7,5.8-2,11.6-2,17.21.68a6,6,0,0,0,4.6.18c15.34-4.52,30.83-8.49,46.51-11.66,11.59-2.35,23.28-3.91,35.15-2.86a35,35,0,0,1,14.29,4.15A16.8,16.8,0,0,1,693.2,196c.35,2.45.41,4.94.6,7.41ZM460,376.36c1.47-8-2-12.27-5.88-15.2a24.66,24.66,0,0,0-9.47-4.32,50.35,50.35,0,0,0-33.58,3.74,37.82,37.82,0,0,0-8.89,6C396.14,372,398,382,405.29,384.94a36.14,36.14,0,0,0,3.67,1.27c6,1.67,12.09,1.07,18.14.23C438.59,384.86,449.16,380.26,460,376.36Z" transform="translate(-294.6 -162.22)"/><path class="cls-3" d="M353.83,303.87l-.27,1.14c-.71.51-.93,1.11-.35,1.85L353,308a7.54,7.54,0,0,0-1,6l-.2,1.16a3.14,3.14,0,0,0-.41,3.63l-.23,1.76a3.09,3.09,0,0,0-.33,3.65l-.18,2.36c-1.33,2.15-1,4.39-.38,6.65,0,3.62,0,7.25,0,10.87-.62,2.45-.92,4.88.37,7.24l.19,2.37a3,3,0,0,0,.32,3.57l.18,1.42c-.38,1.41-.58,2.79.44,4L352,364a12.66,12.66,0,0,0-.1,2.6,153.47,153.47,0,0,0,15.91,46.95,19.49,19.49,0,0,0,1.9,2.56.27.27,0,0,1,.19.31,3.5,3.5,0,0,0,1.92,3.38.57.57,0,0,1,.26.49c.52.83,1,1.67,1.55,2.51a.49.49,0,0,1,.28.45,5.9,5.9,0,0,0,2.79,4.33.45.45,0,0,1,.24.42,1.79,1.79,0,0,0,1.41,2l.33.48.95,1.31a.5.5,0,0,1,.29.43,1.78,1.78,0,0,0,1.46,2,.56.56,0,0,1,.31.46l1.35,1.77.49.59a1.84,1.84,0,0,0,1.56,2l.81,1.07a3.64,3.64,0,0,0,2.56,3l1,1.24a7,7,0,0,0,4,4.33l4.89,4.89a5.48,5.48,0,0,0,3.67,3.45l1.88,1.62a2.58,2.58,0,0,0,2.34,2l1.7,1.41a1.79,1.79,0,0,0,2,1.52h0c-.46,1.3-.86,2.63-1.39,3.9-.89,2.19-1.86,4.35-2.8,6.52l0,0-1.05,2.1-.8,1.46-.44.88-.42.83-1.79.16a.4.4,0,0,1-.37-.29,1.87,1.87,0,0,0-2-1.55.48.48,0,0,1-.42-.29,1.83,1.83,0,0,0-2-1.52.49.49,0,0,1-.43-.33,4,4,0,0,0-3.16-2.68l-1-.88a4.14,4.14,0,0,0-3.11-2.75l-4.1-3.82a4.3,4.3,0,0,0-2.84-2.86L378,458.17a5.12,5.12,0,0,0-3.09-3.57l0,0c-.33-1.92-1.69-2.94-3.28-3.78a.46.46,0,0,1-.3-.41,2.66,2.66,0,0,0-2.08-2.59.48.48,0,0,1-.3-.42l-1.54-2-.09-.11a2.15,2.15,0,0,0-1.69-2.25.52.52,0,0,1-.28-.44l-1-1.36a.39.39,0,0,1-.27-.39,1.78,1.78,0,0,0-1.45-2,.53.53,0,0,1-.3-.47,6,6,0,0,0-2.79-4.31.47.47,0,0,1-.24-.43,6,6,0,0,0-2.75-4.38.45.45,0,0,1-.24-.44,5.79,5.79,0,0,0-2.41-4.26v0a4.19,4.19,0,0,0-.2-1.15q-3-6.15-6-12.27c-.11-.23-.46-.35-.69-.52l-2.17-5.11-.61-1.52-.58-1.5-.59-1.51-.57-1.55L342,398l-.73-2.13-1.62-5c-.08-.32-.17-.64-.26-1L339,388.5c-.25-.92-.51-1.85-.77-2.78l-.42-1.42-.48-2c-.09-.5-.19-1-.28-1.5v0l-.4-1.31c-.15-.67-.29-1.34-.44-2s-.19-1.06-.29-1.59a.31.31,0,0,1-.1-.38c-.13-.67-.26-1.35-.38-2-.09-.51-.18-1-.26-1.54l-.48-2.77-.23-1.16-.26-1.74-.4-3.05-.19-1.75-.3-2.68L333,355.5l-.3-4.26a2.44,2.44,0,0,0-.22-2.93q0-8.71,0-17.42a4.47,4.47,0,0,0,.25-4.13l.36-4.87.33-2.67.23-2.12.19-1.76.39-2.93.26-1.87.32-1.73a8.15,8.15,0,0,0,1-5.81.24.24,0,0,1,.1-.33l.64-1.19-.1-1.43.65-2.65a14.35,14.35,0,0,0,.84-1.83q2.12-7,4.18-14c.73-2.45,1.41-4.91,2.12-7.37l.56-1.43a9.07,9.07,0,0,0,1.08-1.36q5-10.19,9.94-20.4c.47-1,.76-2,1.14-3v0a7.31,7.31,0,0,0,3-4.82l0,0,.48-.81.52-.83a10.55,10.55,0,0,0,3.83-5.61.55.55,0,0,1,.27-.42,6.77,6.77,0,0,0,3.28-4.45.41.41,0,0,1,.26-.36,6.63,6.63,0,0,0,3.4-4.36.53.53,0,0,1,.3-.42,5.68,5.68,0,0,0,3.32-3.75l.83-1.05c2.09-1.93,4.2-3.84,6.24-5.81a4.8,4.8,0,0,0,.71-1.57l1.79-1.74c2.71-1.2,4.53-3.37,6.15-5.74a.46.46,0,0,1,.37-.3l.86-.78a.64.64,0,0,1,.45-.36,1.88,1.88,0,0,0,1.9-1.62l1-.85a2.74,2.74,0,0,0,2.61-2.09.53.53,0,0,1,.43-.28,1.85,1.85,0,0,0,2-1.58l1.08-.79c2.19-.84,4.23-1.89,5.53-4a.51.51,0,0,1,.41-.27,8.68,8.68,0,0,0,5-3.31.56.56,0,0,1,.45-.26l1.36-.89a.64.64,0,0,1,.49-.28,40.76,40.76,0,0,0,10.78-6.06h0l8.44-4.17h0a20.11,20.11,0,0,0,2.81-.79,176.09,176.09,0,0,1,31.13-10.38c1.53-.36,3-.95,4.51-1.43l.89-.18a15.79,15.79,0,0,0,2.06,0q8.88-1.12,17.74-2.32a6.42,6.42,0,0,0,1.59-.67l3.55-.2a20,20,0,0,0,9.57-.29h2.37a22.17,22.17,0,0,0,10.18.31l3.54.21c1.54,1.08,3.19.9,4.86.39l1.15.16a41,41,0,0,0,4.21,1c3.52.51,7.05.9,10.58,1.34l.89.18,4.17.89,1.14.27a8,8,0,0,0,1.55.77,187.3,187.3,0,0,1,32.26,11.47,17.92,17.92,0,0,1,2,1.21l-1.1.62-1-.26-2.4-.68-1.26-.35-.57-.1-1.17-.15-.64-.09-1.09-.2a6.57,6.57,0,0,0-6.11,0l-2.41.33a1.14,1.14,0,0,0-1.85.37l-1.15.26-1.25.29-3.85,1.21-.88.36-.82.36-.92.41-.83.41c-1,0-1.87.08-2.29,1.15l-.12.06-.24,0-.14.2-.77.44a.3.3,0,0,0-.44.19l-1.15.21a11.72,11.72,0,0,0-7.23-1.75l-1.15-.27-1.26-.26-1.14-.27a1.15,1.15,0,0,0-1.86-.35l-1.15-.26a1.69,1.69,0,0,0-2.43-.43l-1.16-.21a2.38,2.38,0,0,0-3-.39l-1.76-.24a1.68,1.68,0,0,0-2.46-.28l-1.74-.26c-2-1.18-4-.87-6.06-.35l-4.75-.25a4.88,4.88,0,0,0-1.58-.63q-4.17-.09-8.32,0a5.22,5.22,0,0,0-1.61.61l-5.4.28a16.27,16.27,0,0,0-3.15-.36c-2.44.19-4.88.52-7.3.89-1.33.21-2.63.6-3.94.9l-.88.13a7.7,7.7,0,0,0-5.78,1.11l-1.16.29a1.13,1.13,0,0,0-1.84.38l-1.15.26a7.84,7.84,0,0,0-2,0A153.19,153.19,0,0,0,444,193a10.06,10.06,0,0,0-1.86,1.38l-2.23,1-1.93,1-.82.4c-.52.28-1.05.55-1.58.82l-2,1-.88.45,0,0a3.46,3.46,0,0,0-3.07,1.75.28.28,0,0,1-.31.19,5.92,5.92,0,0,0-4.54,2.66.38.38,0,0,1-.39.23l-1.41.94a.44.44,0,0,1-.42.25,3.33,3.33,0,0,0-3.2,2.07.56.56,0,0,1-.46.29l-1.33,1a.48.48,0,0,1-.42.27l-1.37,1a.44.44,0,0,1-.41.23,1.83,1.83,0,0,0-2,1.51l-1.1.84-1.3,1a.41.41,0,0,1-.38.27l-2.87.1-.83-.44-1.25-.51-1.14-.35-1.89-.29h-1.78a1.64,1.64,0,0,0-2.49.44l-.73.24c-1.76.11-3.35.51-4,2.43l-.65.65-1.25,1.54-.12.18c-1.79.93-1.89,2.55-1.76,4.26l-.27,1.15-.31,1.86-.28,1.75a2.36,2.36,0,0,0-.31,3.05l-.25,2.35c-.65,1.65-1.29,3.31-1.93,5l-.5.6a2.55,2.55,0,0,0-1.9,2.41l-.78,1.07a1.82,1.82,0,0,0-1.56,2,.45.45,0,0,1-.28.4l-1,1.32-2,2.87-1.13,1.65-.07.12a3.36,3.36,0,0,0-2.13,3.24.42.42,0,0,1-.23.4,2.51,2.51,0,0,0-1.62,2.52.53.53,0,0,1-.25.47l-.89,1.43-.59,1c-.22.06-.29.19-.2.4l-.06.12a7.26,7.26,0,0,0-2.77,5l0,0a6.34,6.34,0,0,0-2.45,4.85l-.49,1a9.82,9.82,0,0,0-1.22,1.62,152,152,0,0,0-10.7,31.23A4.67,4.67,0,0,0,353.83,303.87Z" transform="translate(-294.6 -162.22)"/><path class="cls-2" d="M775.63,395.4c5.12,6.26,10.07,12.28,15,18.32,6,7.28,11.85,14.59,17.83,21.83a6.89,6.89,0,0,1,1.81,5.17c-.13,1.77,0,3.57,0,5.53a19.63,19.63,0,0,1-2.19.26c-7.6,0-15.2,0-22.8.06a4.35,4.35,0,0,1-3.76-1.91q-10.47-12.93-21-25.79c-.61-.75-1.29-1.45-2.07-2.33-.79.9-1.46,1.61-2.07,2.36-7,8.51-14,17-20.85,25.57a4.85,4.85,0,0,1-4.28,2.1c-7.29-.11-14.59,0-21.89-.05-.78,0-1.57-.08-2.73-.15,0-2.76-.15-5.43.09-8.07.08-1,1-1.88,1.72-2.72q14.88-18.25,29.79-36.46l3-3.68c-.62-.8-1.18-1.58-1.8-2.31-10.3-12.11-20.57-24.23-31-36.27a7,7,0,0,1-1.92-5.4c.14-1.76,0-3.54,0-5.53h3.07c7.2,0,14.39.07,21.59-.05a5,5,0,0,1,4.32,2c6.91,8.3,13.91,16.51,20.89,24.75.58.68,1.19,1.33,1.93,2.16.62-.62,1.21-1.11,1.7-1.69,7-8.33,14.06-16.65,21-25a5.19,5.19,0,0,1,4.52-2.21c7.2.14,14.4.06,21.6.06h3.07c0,2.84.16,5.51-.08,8.15-.09.95-1,1.88-1.74,2.71q-15.33,18.06-30.7,36.09C777,393.63,776.42,394.41,775.63,395.4Z" transform="translate(-294.6 -162.22)"/><path class="cls-4" d="M934.5,345.85v26.51h-37v47.45c3,.21,6.08.06,9.13.09s6.19,0,9.29,0h18.16c.67,2.37.84,22.34.25,26.49-1,.05-2.05.13-3.11.13-11,0-22-.39-33,.1-15.83.72-27.87-11.75-27.66-27.5.45-33.17.14-66.36.14-99.54v-3.36h26.61v29.63Z" transform="translate(-294.6 -162.22)"/><path class="cls-5" d="M600.87,313h26.56c.12,3.95,0,7.9.06,11.85s0,7.8,0,11.7v83.35h20.06v26.45c-.87.07-1.63.19-2.4.19-6.2,0-12.4-.15-18.59,0-13.59.43-26-11.32-25.92-25.83.17-35.08.05-70.17.06-105.25C600.7,314.7,600.8,313.93,600.87,313Z" transform="translate(-294.6 -162.22)"/><path class="cls-3" d="M442.75,502.83l11.42-14.89c1.23.38,2.46.75,3.67,1.15a164.34,164.34,0,0,0,72.52,7c27.65-3.32,52.45-13.71,75-29.85,3.49-2.5,6.72-5.37,10.12-8,.74-.56,1.8-1.26,2.58-1.12,6.85,1.23,13.76.7,20.65.82.67,0,1.35.1,2.68.21-24.36,25.52-52.93,42.95-86.56,51.49Q498.08,524,442.75,502.83Z" transform="translate(-294.6 -162.22)"/><path class="cls-3" d="M827.7,446.26V346.43c2.18-.61,21.26-.82,26-.31.58,2,.8,95.32.24,99.93C851.87,446.64,832.48,446.83,827.7,446.26Z" transform="translate(-294.6 -162.22)"/><path class="cls-2" d="M690.9,446.4H664.78V346.14H690.9Z" transform="translate(-294.6 -162.22)"/><path class="cls-6" d="M623.57,226.74a17.85,17.85,0,0,1,1.85-.91c5-1.57,9.92-3.1,14.86-4.69a2.85,2.85,0,0,1,3.39,1,167.37,167.37,0,0,1,22.77,33,176.53,176.53,0,0,1,14.93,38.17c.68,2.58,1.21,5.19,1.87,8H665.11C657.91,272.87,644.47,247.83,623.57,226.74Z" transform="translate(-294.6 -162.22)"/><path class="cls-7" d="M827.74,313.11h26.37c.1,8.78,0,17.5,0,26.43H827.74Z" transform="translate(-294.6 -162.22)"/><path class="cls-3" d="M664.76,339.54V313.09h26.32c.1,8.83,0,17.54,0,26.45Z" transform="translate(-294.6 -162.22)"/><path class="cls-8" d="M369.66,416.07a19.49,19.49,0,0,1-1.9-2.56,153.47,153.47,0,0,1-15.91-46.95,12.66,12.66,0,0,1,.1-2.6c.8,3.8,1.55,7.6,2.4,11.38a151.67,151.67,0,0,0,13.73,37.22C368.68,413.7,369.14,414.9,369.66,416.07Z" transform="translate(-294.6 -162.22)"/><path class="cls-9" d="M586,181.07l1.1-.62a17.92,17.92,0,0,0-2-1.21,187.3,187.3,0,0,0-32.26-11.47,8,8,0,0,1-1.55-.77c3.28.78,6.58,1.44,9.82,2.36a170.48,170.48,0,0,1,25.91,10c.62.29,1.18.69,2,1.16C587.94,181.31,587.1,181.87,586,181.07Z" transform="translate(-294.6 -162.22)"/><path class="cls-9" d="M472.81,165.85c-1.5.48-3,1.07-4.51,1.43a176.09,176.09,0,0,0-31.13,10.38,20.11,20.11,0,0,1-2.81.79c1.76-.9,3.48-1.91,5.3-2.67A167.37,167.37,0,0,1,471.05,166,11.4,11.4,0,0,1,472.81,165.85Z" transform="translate(-294.6 -162.22)"/><path class="cls-8" d="M353.83,303.87a4.67,4.67,0,0,1-.18-1.41,152,152,0,0,1,10.7-31.23,9.82,9.82,0,0,1,1.22-1.62,11.62,11.62,0,0,1-.49,1.68,155.91,155.91,0,0,0-10.53,30.65A15.51,15.51,0,0,1,353.83,303.87Z" transform="translate(-294.6 -162.22)"/><path class="cls-8" d="M442.12,194.36A10.06,10.06,0,0,1,444,193a153.19,153.19,0,0,1,27.4-9.27,7.84,7.84,0,0,1,2,0c-2.28.65-4.56,1.36-6.85,2a148,148,0,0,0-21.89,7.78C443.82,193.84,443,194.07,442.12,194.36Z" transform="translate(-294.6 -162.22)"/><path class="cls-9" d="M356.91,248c-.38,1-.67,2.06-1.14,3q-4.93,10.22-9.94,20.4a9.07,9.07,0,0,1-1.08,1.36,17.54,17.54,0,0,1,.87-2.83q5.11-10.46,10.34-20.87A5.72,5.72,0,0,1,356.91,248Z" transform="translate(-294.6 -162.22)"/><path class="cls-9" d="M344.19,274.23c-.71,2.46-1.39,4.92-2.12,7.37q-2.07,7-4.18,14a14.35,14.35,0,0,1-.84,1.83c.78-3.36,1.34-6.8,2.38-10.08C340.83,282.89,342.58,278.58,344.19,274.23Z" transform="translate(-294.6 -162.22)"/><path class="cls-9" d="M495.09,162.71a6.42,6.42,0,0,1-1.59.67q-8.87,1.2-17.74,2.32a15.79,15.79,0,0,1-2.06,0c1.72-.43,3.41-1,5.15-1.26,4.52-.68,9.06-1.24,13.59-1.79A18.11,18.11,0,0,1,495.09,162.71Z" transform="translate(-294.6 -162.22)"/><path class="cls-8" d="M347,410.64c.23.17.58.29.69.52q3,6.12,6,12.27a4.19,4.19,0,0,1,.2,1.15Z" transform="translate(-294.6 -162.22)"/><path class="cls-9" d="M545.1,165.66c-3.53-.44-7.06-.83-10.58-1.34a41,41,0,0,1-4.21-1A53.41,53.41,0,0,1,545.1,165.66Z" transform="translate(-294.6 -162.22)"/><path class="cls-8" d="M484.18,181.58c1.31-.3,2.61-.69,3.94-.9,2.42-.37,4.86-.7,7.3-.89a16.27,16.27,0,0,1,3.15.36Z" transform="translate(-294.6 -162.22)"/><path class="cls-8" d="M504,179.87a5.22,5.22,0,0,1,1.61-.61q4.16-.1,8.32,0a4.88,4.88,0,0,1,1.58.63Z" transform="translate(-294.6 -162.22)"/><path class="cls-9" d="M425.94,182.61a40.76,40.76,0,0,1-10.78,6.06Z" transform="translate(-294.6 -162.22)"/><path class="cls-9" d="M520.76,162.53a22.17,22.17,0,0,1-10.18-.31Z" transform="translate(-294.6 -162.22)"/><path class="cls-9" d="M383.33,213.79a4.8,4.8,0,0,1-.71,1.57c-2,2-4.15,3.88-6.24,5.81Z" transform="translate(-294.6 -162.22)"/><path class="cls-8" d="M405.71,473.81c.94-2.17,1.91-4.33,2.8-6.52.53-1.27.93-2.6,1.39-3.9,1,.3.77,1.07.47,1.65C408.86,468,407.27,470.89,405.71,473.81Z" transform="translate(-294.6 -162.22)"/><path class="cls-9" d="M508.21,162.22a20,20,0,0,1-9.57.29Z" transform="translate(-294.6 -162.22)"/><path class="cls-9" d="M391.27,206.31c-1.62,2.37-3.44,4.54-6.15,5.74Z" transform="translate(-294.6 -162.22)"/><path class="cls-9" d="M434.36,178.45l-8.44,4.17Z" transform="translate(-294.6 -162.22)"/><path class="cls-8" d="M350.6,351.38c-1.29-2.36-1-4.79-.37-7.24Z" transform="translate(-294.6 -162.22)"/><path class="cls-8" d="M545.44,183.69a11.72,11.72,0,0,1,7.23,1.75Z" transform="translate(-294.6 -162.22)"/><path class="cls-8" d="M350.24,333.27c-.61-2.26-.95-4.5.38-6.65C350.49,328.84,350.36,331.05,350.24,333.27Z" transform="translate(-294.6 -162.22)"/><path class="cls-9" d="M407.46,193.68c-1.3,2.09-3.34,3.14-5.53,4Z" transform="translate(-294.6 -162.22)"/><path class="cls-9" d="M364.72,236a10.55,10.55,0,0,1-3.83,5.61Z" transform="translate(-294.6 -162.22)"/><path class="cls-8" d="M520.23,180.12c2-.52,4.1-.83,6.06.35Z" transform="translate(-294.6 -162.22)"/><path class="cls-8" d="M571.78,179.21a6.57,6.57,0,0,1,6.11,0Z" transform="translate(-294.6 -162.22)"/><path class="cls-8" d="M393.47,448.54a7,7,0,0,1-4-4.33Z" transform="translate(-294.6 -162.22)"/><path class="cls-8" d="M352,314.06a7.54,7.54,0,0,1,1-6Z" transform="translate(-294.6 -162.22)"/><path class="cls-9" d="M412.86,190.1a8.68,8.68,0,0,1-5,3.31Z" transform="translate(-294.6 -162.22)"/><path class="cls-9" d="M368.27,231.11a6.77,6.77,0,0,1-3.28,4.45Z" transform="translate(-294.6 -162.22)"/><path class="cls-8" d="M386.45,236.78c.64-1.65,1.28-3.31,1.93-5C388.87,233.92,388.39,235.63,386.45,236.78Z" transform="translate(-294.6 -162.22)"/><path class="cls-9" d="M335.76,303a8.15,8.15,0,0,1-1,5.81Z" transform="translate(-294.6 -162.22)"/><path class="cls-9" d="M371.93,226.39a6.63,6.63,0,0,1-3.4,4.36Z" transform="translate(-294.6 -162.22)"/><path class="cls-8" d="M368.49,263.79a7.26,7.26,0,0,1,2.77-5Z" transform="translate(-294.6 -162.22)"/><path class="cls-8" d="M477.52,182.82a7.7,7.7,0,0,1,5.78-1.11Z" transform="translate(-294.6 -162.22)"/><path class="cls-9" d="M359.91,243.21a7.31,7.31,0,0,1-3,4.82Q358.4,245.61,359.91,243.21Z" transform="translate(-294.6 -162.22)"/><path class="cls-9" d="M529.16,163.13c-1.67.51-3.32.69-4.86-.39Z" transform="translate(-294.6 -162.22)"/><path class="cls-8" d="M371.61,450.84c1.59.84,2.95,1.86,3.28,3.78Z" transform="translate(-294.6 -162.22)"/><path class="cls-8" d="M402,456.88a5.48,5.48,0,0,1-3.67-3.45Z" transform="translate(-294.6 -162.22)"/><path class="cls-8" d="M359.56,434.06a6,6,0,0,1,2.79,4.31Z" transform="translate(-294.6 -162.22)"/><path class="cls-8" d="M376.65,427.54a5.9,5.9,0,0,1-2.79-4.33Z" transform="translate(-294.6 -162.22)"/><path class="cls-8" d="M366.06,268.61a6.34,6.34,0,0,1,2.45-4.85Z" transform="translate(-294.6 -162.22)"/><path class="cls-8" d="M424.76,203.57a5.92,5.92,0,0,1,4.54-2.66Z" transform="translate(-294.6 -162.22)"/><path class="cls-8" d="M356.57,429.25a6,6,0,0,1,2.75,4.38Z" transform="translate(-294.6 -162.22)"/><path class="cls-9" d="M375.55,222.22a5.68,5.68,0,0,1-3.32,3.75Z" transform="translate(-294.6 -162.22)"/><path class="cls-8" d="M389.8,221.66c-.13-1.71,0-3.33,1.76-4.26Z" transform="translate(-294.6 -162.22)"/><path class="cls-9" d="M332.69,326.76a4.47,4.47,0,0,1-.25,4.13Z" transform="translate(-294.6 -162.22)"/><path class="cls-9" d="M339.66,390.91l1.62,5Z" transform="translate(-294.6 -162.22)"/><path class="cls-8" d="M374.87,454.6a5.12,5.12,0,0,1,3.09,3.57Z" transform="translate(-294.6 -162.22)"/><path class="cls-8" d="M392.91,472.55a4,4,0,0,1,3.16,2.68Z" transform="translate(-294.6 -162.22)"/><path class="cls-8" d="M393.58,215c.66-1.92,2.25-2.32,4-2.43Z" transform="translate(-294.6 -162.22)"/><path class="cls-8" d="M353.92,424.55a5.79,5.79,0,0,1,2.41,4.26Z" transform="translate(-294.6 -162.22)"/><path class="cls-9" d="M550.16,166.73l-4.17-.89Z" transform="translate(-294.6 -162.22)"/><path class="cls-8" d="M381.82,462.24a4.3,4.3,0,0,1,2.84,2.86Z" transform="translate(-294.6 -162.22)"/><path class="cls-8" d="M388.76,468.92a4.14,4.14,0,0,1,3.11,2.75Z" transform="translate(-294.6 -162.22)"/><path class="cls-8" d="M351.73,362.78c-1-1.25-.82-2.63-.44-4C351.44,360.09,351.59,361.43,351.73,362.78Z" transform="translate(-294.6 -162.22)"/><path class="cls-8" d="M350.8,324.26a3.09,3.09,0,0,1,.33-3.65Z" transform="translate(-294.6 -162.22)"/><path class="cls-8" d="M351.36,318.85a3.14,3.14,0,0,1,.41-3.63Z" transform="translate(-294.6 -162.22)"/><path class="cls-8" d="M351.11,357.32a3,3,0,0,1-.32-3.57Z" transform="translate(-294.6 -162.22)"/><path class="cls-8" d="M419.34,207.06a3.33,3.33,0,0,1,3.2-2.07Z" transform="translate(-294.6 -162.22)"/><path class="cls-8" d="M388.41,443a3.64,3.64,0,0,1-2.56-3C386.7,441,387.56,442,388.41,443Z" transform="translate(-294.6 -162.22)"/><path class="cls-8" d="M371.77,419.76a3.5,3.5,0,0,1-1.92-3.38Z" transform="translate(-294.6 -162.22)"/><path class="cls-8" d="M375.1,252.46a3.36,3.36,0,0,1,2.13-3.24Z" transform="translate(-294.6 -162.22)"/><path class="cls-9" d="M332.45,348.31a2.44,2.44,0,0,1,.22,2.93Z" transform="translate(-294.6 -162.22)"/><path class="cls-8" d="M532.25,181.25a2.38,2.38,0,0,1,3,.39Z" transform="translate(-294.6 -162.22)"/><path class="cls-9" d="M398.46,200.31a2.74,2.74,0,0,1-2.61,2.09Z" transform="translate(-294.6 -162.22)"/><path class="cls-9" d="M333,355.5l.36,3.32Z" transform="translate(-294.6 -162.22)"/><path class="cls-8" d="M369.23,447.84a2.66,2.66,0,0,1,2.08,2.59C370.62,449.57,369.92,448.71,369.23,447.84Z" transform="translate(-294.6 -162.22)"/><path class="cls-8" d="M388.63,229.47a2.36,2.36,0,0,1,.31-3.05Z" transform="translate(-294.6 -162.22)"/><path class="cls-8" d="M429.61,200.72a3.46,3.46,0,0,1,3.07-1.75Z" transform="translate(-294.6 -162.22)"/><path class="cls-8" d="M365.61,443.05a2.15,2.15,0,0,1,1.69,2.25Z" transform="translate(-294.6 -162.22)"/><path class="cls-8" d="M536.45,181.85a1.69,1.69,0,0,1,2.43.43Z" transform="translate(-294.6 -162.22)"/><path class="cls-8" d="M407.7,213.5l2.87-.1C409.66,214.9,408.7,214.58,407.7,213.5Z" transform="translate(-294.6 -162.22)"/><path class="cls-8" d="M384.05,239.79a2.55,2.55,0,0,1,1.9-2.41C385.31,238.18,384.68,239,384.05,239.79Z" transform="translate(-294.6 -162.22)"/><path class="cls-8" d="M373.25,255.38a2.51,2.51,0,0,1,1.62-2.52Z" transform="translate(-294.6 -162.22)"/><path class="cls-8" d="M406.25,460.47a2.58,2.58,0,0,1-2.34-2Z" transform="translate(-294.6 -162.22)"/><path class="cls-8" d="M528,180.73a1.68,1.68,0,0,1,2.46.28Z" transform="translate(-294.6 -162.22)"/><path class="cls-9" d="M333.38,319.22l-.33,2.67Z" transform="translate(-294.6 -162.22)"/><path class="cls-9" d="M334.71,369.2l.48,2.77Z" transform="translate(-294.6 -162.22)"/><path class="cls-8" d="M373.58,422.76c-.51-.84-1-1.68-1.55-2.51C372.55,421.08,373.07,421.92,373.58,422.76Z" transform="translate(-294.6 -162.22)"/><path class="cls-8" d="M362.65,438.84a1.78,1.78,0,0,1,1.45,2Z" transform="translate(-294.6 -162.22)"/><path class="cls-8" d="M398.32,212.36a1.64,1.64,0,0,1,2.49-.44Z" transform="translate(-294.6 -162.22)"/><path class="cls-8" d="M413.35,211.3a1.83,1.83,0,0,1,2-1.51Z" transform="translate(-294.6 -162.22)"/><path class="cls-8" d="M378.3,430a1.79,1.79,0,0,1-1.41-2Z" transform="translate(-294.6 -162.22)"/><path class="cls-9" d="M394.85,203.25a1.88,1.88,0,0,1-1.9,1.62Z" transform="translate(-294.6 -162.22)"/><path class="cls-8" d="M385,439a1.84,1.84,0,0,1-1.56-2Z" transform="translate(-294.6 -162.22)"/><path class="cls-9" d="M400.85,198.45a1.85,1.85,0,0,1-2,1.58Z" transform="translate(-294.6 -162.22)"/><path class="cls-8" d="M381.33,434.16a1.78,1.78,0,0,1-1.46-2Z" transform="translate(-294.6 -162.22)"/><path class="cls-8" d="M367.39,445.41l1.54,2Z" transform="translate(-294.6 -162.22)"/><path class="cls-8" d="M409.91,463.4a1.79,1.79,0,0,1-2-1.52Z" transform="translate(-294.6 -162.22)"/><path class="cls-8" d="M381.71,242.86a1.82,1.82,0,0,1,1.56-2Z" transform="translate(-294.6 -162.22)"/><path class="cls-8" d="M396.5,475.56a1.83,1.83,0,0,1,2,1.52Z" transform="translate(-294.6 -162.22)"/><path class="cls-8" d="M398.88,477.37a1.87,1.87,0,0,1,2,1.55Z" transform="translate(-294.6 -162.22)"/><path class="cls-9" d="M333.63,361.5l.19,1.75Z" transform="translate(-294.6 -162.22)"/><path class="cls-9" d="M335.45,373.51c.12.67.25,1.35.38,2C335.7,374.86,335.57,374.18,335.45,373.51Z" transform="translate(-294.6 -162.22)"/><path class="cls-9" d="M582.62,180.13l2.4.68Z" transform="translate(-294.6 -162.22)"/><path class="cls-8" d="M389.22,224.67l.31-1.86Z" transform="translate(-294.6 -162.22)"/><path class="cls-8" d="M555.53,184.36c.42-1.07,1.32-1.19,2.29-1.15Z" transform="translate(-294.6 -162.22)"/><path class="cls-8" d="M540,182.54a1.15,1.15,0,0,1,1.86.35Z" transform="translate(-294.6 -162.22)"/><path class="cls-8" d="M438,196.35l1.93-1Z" transform="translate(-294.6 -162.22)"/><path class="cls-8" d="M474.52,183.49a1.13,1.13,0,0,1,1.84-.38Z" transform="translate(-294.6 -162.22)"/><path class="cls-9" d="M334.22,366.3l.26,1.74Z" transform="translate(-294.6 -162.22)"/><path class="cls-8" d="M567.52,179.91a1.14,1.14,0,0,1,1.85-.37Z" transform="translate(-294.6 -162.22)"/><path class="cls-8" d="M353.21,306.86c-.58-.74-.36-1.34.35-1.85Z" transform="translate(-294.6 -162.22)"/><path class="cls-9" d="M334.45,310.54l-.26,1.87Z" transform="translate(-294.6 -162.22)"/><path class="cls-9" d="M333.8,315.34l-.19,1.76Z" transform="translate(-294.6 -162.22)"/><path class="cls-8" d="M401.23,479.21l1.79-.16C402.54,480.41,401.93,480.33,401.23,479.21Z" transform="translate(-294.6 -162.22)"/><path class="cls-8" d="M402.59,211.91l1.89.29Z" transform="translate(-294.6 -162.22)"/><path class="cls-8" d="M383,436.39l-1.35-1.77Z" transform="translate(-294.6 -162.22)"/><path class="cls-8" d="M377.3,249.1l1.13-1.65Z" transform="translate(-294.6 -162.22)"/><path class="cls-8" d="M391.68,217.22l1.25-1.54Z" transform="translate(-294.6 -162.22)"/><path class="cls-9" d="M344.23,404l.61,1.52Z" transform="translate(-294.6 -162.22)"/><path class="cls-8" d="M543,183.16l1.26.26Z" transform="translate(-294.6 -162.22)"/><path class="cls-8" d="M411,213.13l1.3-1Z" transform="translate(-294.6 -162.22)"/><path class="cls-8" d="M379.58,431.76l-.95-1.31Z" transform="translate(-294.6 -162.22)"/><path class="cls-9" d="M339,388.5l.39,1.45Z" transform="translate(-294.6 -162.22)"/><path class="cls-9" d="M336.4,300.05c0,.47.07.95.1,1.43a4.53,4.53,0,0,1-.52,0Z" transform="translate(-294.6 -162.22)"/><path class="cls-8" d="M405.62,212.55l1.25.51Z" transform="translate(-294.6 -162.22)"/><path class="cls-8" d="M415.76,209.56l1.37-1Z" transform="translate(-294.6 -162.22)"/><path class="cls-8" d="M380.45,244.58l1-1.32Z" transform="translate(-294.6 -162.22)"/><path class="cls-8" d="M417.55,208.31l1.33-1Z" transform="translate(-294.6 -162.22)"/><path class="cls-8" d="M423,204.74l1.41-.94Z" transform="translate(-294.6 -162.22)"/><path class="cls-8" d="M435.56,197.57c.53-.27,1.06-.54,1.58-.82C436.62,197,436.09,197.3,435.56,197.57Z" transform="translate(-294.6 -162.22)"/><path class="cls-9" d="M414.67,189l-1.36.89Z" transform="translate(-294.6 -162.22)"/><path class="cls-8" d="M565.12,180.46l1.25-.29Z" transform="translate(-294.6 -162.22)"/><path class="cls-8" d="M372.11,257.28l.89-1.43Z" transform="translate(-294.6 -162.22)"/><path class="cls-9" d="M336.66,379.51l.4,1.31Z" transform="translate(-294.6 -162.22)"/><path class="cls-8" d="M404.68,475.88l1.05-2.1Z" transform="translate(-294.6 -162.22)"/><path class="cls-9" d="M337.82,384.3l.42,1.42Z" transform="translate(-294.6 -162.22)"/><path class="cls-9" d="M342,398l.48,1.45Z" transform="translate(-294.6 -162.22)"/><path class="cls-9" d="M343.06,401l.59,1.51Z" transform="translate(-294.6 -162.22)"/><path class="cls-8" d="M364.37,441.25l1,1.36Z" transform="translate(-294.6 -162.22)"/><path class="cls-9" d="M392.5,205.23l-.86.78Z" transform="translate(-294.6 -162.22)"/><path class="cls-8" d="M337.06,380.78c.09.5.19,1,.28,1.5C337.25,381.78,337.15,381.28,337.06,380.78Z" transform="translate(-294.6 -162.22)"/><path class="cls-8" d="M335.93,375.91c.1.53.19,1.06.29,1.59a.57.57,0,0,1-.36-.38h.07Z" transform="translate(-294.6 -162.22)"/><path class="cls-8" d="M336,301.51a4.53,4.53,0,0,0,.52,0l-.64,1.19Z" transform="translate(-294.6 -162.22)"/><polygon class="cls-8" points="260.43 22.38 260.57 22.18 260.81 22.2 260.68 22.43 260.43 22.38"/><path class="cls-8" d="M553.82,185.23a.3.3,0,0,1,.44-.19Z" transform="translate(-294.6 -162.22)"/><path class="cls-9" d="M360.37,242.42l-.48.81Z" transform="translate(-294.6 -162.22)"/><path class="cls-8" d="M558.65,182.8l.92-.41Z" transform="translate(-294.6 -162.22)"/><path class="cls-8" d="M432.66,199l.88-.45Z" transform="translate(-294.6 -162.22)"/><path class="cls-8" d="M371.32,258.71c-.09-.21,0-.34.2-.4Z" transform="translate(-294.6 -162.22)"/><path class="cls-8" d="M580.79,179.68l.57.1Z" transform="translate(-294.6 -162.22)"/><path class="cls-8" d="M560.39,182l.88-.36Z" transform="translate(-294.6 -162.22)"/><path class="cls-8" d="M579,179.44l.64.09Z" transform="translate(-294.6 -162.22)"/><path class="cls-9" d="M335.86,377.12h0Z" transform="translate(-294.6 -162.22)"/><path class="cls-8" d="M403.44,478.22l.44-.88Z" transform="translate(-294.6 -162.22)"/></svg>