<svg id="Layer_2" data-name="Layer 2" xmlns="http://www.w3.org/2000/svg" viewBox="0 0 1051.32 1211.94"><defs><style>.cls-1{fill:#fff;}</style></defs><title>black-white-background-wm-logo</title><path class="cls-1" d="M2921.25,2.49q0,148.23.11,296.47c0,5.46-1.94,8.33-6.53,11-45.66,26.2-91.18,52.66-136.79,79q-91.77,53-183.61,105.86-81.16,46.86-162.25,93.84c-10.82,6.26-21.67,12.45-32.4,18.86-3,1.81-5.48,1.46-8.34-.2Q2328.76,570.87,2266,534.6q-100.19-57.89-200.43-115.69-83.55-48.24-167-96.53c-7.51-4.34-14.9-8.88-22.57-12.88-4.46-2.33-5.9-5.39-5.89-10.34q.21-98.49.09-197,0-197.73-.11-395.46c0-5.61,1.78-8.71,6.57-11.45q57.93-33.12,115.63-66.65,63.82-36.9,127.63-73.84,49.35-28.5,98.73-56.92,55-31.75,109.89-63.58c20.77-12,41.6-23.9,62.34-36,3.35-1.95,6.1-2.22,9.65-.15Q2469-562,2537.61-522.45q65.58,37.85,131.22,75.61,67.1,38.73,134.14,77.56,56.27,32.53,112.58,64.94c4.39,2.51,5.81,5.42,5.8,10.35Q2921.16-145.76,2921.25,2.49Zm-46.43.45q0-135,.1-270c0-5.17-1.58-8.31-6.13-10.76-9.52-5.15-18.81-10.75-28.18-16.17q-74-42.8-148-85.58-84-48.48-168-96.89-61.7-35.61-123.29-71.37c-3.94-2.29-7-2.37-11-.06Q2293.25-491.58,2196-435.52q-68.18,39.39-136.36,78.73t-136.4,78.67c-4.91,2.82-6.86,6-6.85,11.85q.28,142.23.13,284.48,0,126.74-.11,253.47c0,5.61,1.8,8.91,6.7,11.46,8.13,4.22,16,9,23.91,13.56q74,42.8,148,85.61,84,48.51,168,96.93c40.55,23.41,81,46.94,121.62,70.26,13.86,8,8.57,7.87,22,.13q85.13-49,170.09-98.28Q2662,402.12,2747.36,353c40.26-23.23,80.44-46.62,120.79-69.7,5-2.86,6.81-6.1,6.8-11.86Q2874.68,137.19,2874.82,2.94Z" transform="translate(-1870.05 603.28)"/><path d="M2874.82,2.94q0,134.25.13,268.48c0,5.76-1.8,9-6.8,11.86-40.35,23.08-80.53,46.47-120.79,69.7q-85.29,49.22-170.62,98.37-85.06,49.11-170.09,98.28c-13.46,7.74-8.17,7.84-22-.13-40.6-23.32-81.07-46.85-121.62-70.26q-84-48.49-168-96.93-74-42.75-148-85.61c-7.93-4.59-15.78-9.34-23.91-13.56-4.9-2.55-6.71-5.85-6.7-11.46q.24-126.74.11-253.47,0-142.24-.13-284.48c0-5.82,1.94-9,6.85-11.85q68.31-39.15,136.4-78.67,68.17-39.36,136.36-78.73,97.17-56.12,194.28-112.34c4-2.31,7.08-2.23,11,.06q61.56,35.82,123.29,71.37,84,48.48,168,96.89,74,42.75,148,85.58c9.37,5.42,18.66,11,28.18,16.17,4.55,2.45,6.14,5.59,6.13,10.76Q2874.71-132,2874.82,2.94ZM1949.46,207.78l1.43.49a41,41,0,0,0,3-4.25c2.55-4.67,4.79-9.52,7.46-14.12Q1991.1,138.68,2021,87.52q31.21-53.79,62.3-107.65a21.7,21.7,0,0,1,2.87-3.22c1.16,1.07,2.68,1.92,3.43,3.22C2104.81,6.42,2120.05,33,2135,59.69a9.44,9.44,0,0,1,.25,7.73c-6.78,12.61-13.93,25-21.15,37.4q-53.05,90.87-106.28,181.65c-2.51,4.29-2,6.42,2.39,9,33.57,19.19,67,38.64,100.45,58q139.61,80.64,279.17,161.37c4.41,2.55,7.66,2.23,11.88-.23q64.82-37.71,129.81-75.13l250.19-144.56c5.36-3.09,5.43-3.29,2.19-8.84q-35.86-61.26-71.74-122.52c-18.28-31.38-36.31-62.9-54.56-94.29-1.73-3-1.87-5.52-.16-8.39,3.24-5.42,6.49-10.85,9.62-16.35q17.51-30.82,35-61.68a42.93,42.93,0,0,1,3.82-5c1.52,1.61,3.42,3,4.5,4.87,8.42,14.55,16.55,29.25,25,43.77,16.93,29.09,34,58.07,51,87.12q25.61,43.8,51.16,87.63a37.37,37.37,0,0,0,3.08,4,16.33,16.33,0,0,0,1.48-7.27q0-222.24,0-444.49c0-1.67.42-3.52-.16-5-1-2.41-2.07-5.34-4-6.66-6.37-4.23-13.31-7.61-19.75-11.75-4.28-2.76-6.52-2-9,2.41q-18.8,33.29-38,66.33Q2745-156,2718.61-110.94q-26.68,45.76-53.37,91.53c-10.11,17.42-19.91,35-30.07,52.41-17.88,30.62-36,61.1-53.89,91.7q-22.05,37.72-43.81,75.6-22.83,39.57-45.53,79.22c-1.36,2.36-3,4.53-4.81,7.15a19.75,19.75,0,0,1-2.52-2.71c-10.38-18.22-20.6-36.54-31.11-54.69q-17.27-29.82-35-59.35c-2.16-3.58-1.82-6.14.17-9.56,13.59-23.3,26.95-46.72,40.41-70.08,2.51-4.36,5.13-8.65,8.19-13.78,1.46,2.19,2.34,3.33,3,4.57,4.08,7.25,8.05,14.57,12.21,21.77,2.9,5,6.24,5.28,9,.62q16.56-28.2,32.85-56.56c8.22-14.27,16.17-28.7,24.41-43,12-20.75,24.23-41.36,36.19-62.12,11.05-19.19,21.68-38.62,32.82-57.75q57.08-98.08,114.47-196c2.51-4.29,2.18-6.51-2.27-9-19.28-10.93-38.37-22.19-57.57-33.27Q2536.66-432.57,2400.94-511c-3.8-2.2-6.67-2.31-10.51-.08q-83.67,48.56-167.5,96.83-79.66,46-159.31,92c-6.17,3.57-6.16,3.66-2.52,9.92q52.08,89.72,104.15,179.42c15.11,26.09,29.87,52.38,44.89,78.52,13.76,24,27.69,47.82,41.5,71.75q23.34,40.44,46.61,80.9c2.26,3.93,4.71,7.74,7.64,12.52,1.64-2.65,2.63-4.12,3.49-5.65,6.21-11,12.25-22.14,18.61-33.07,11.82-20.27,24-40.37,35.72-60.67,11.19-19.28,21.95-38.82,33.16-58.1,12.73-21.87,25.77-43.56,38.65-65.35,2.91-4.93,2-6.62-3.66-6.63q-35.73-.09-71.48,0c-5.75,0-6.67,1.64-3.77,6.57,5.66,9.61,11.29,19.25,17.2,28.71,2.15,3.46,2,6.25,0,9.68-13.72,23.58-27.28,47.25-40.93,70.87-2.29,4-4.76,7.8-7.66,12.53-1.52-2.23-2.51-3.47-3.29-4.84-9-15.72-18-31.5-27.08-47.2q-19.11-33.09-38.35-66.1c-12.93-22.32-25.78-44.69-38.74-67-4.77-8.21-9.73-16.3-14.64-24.42-1.81-3-1.32-4.71,2.46-4.77,1,0,2,0,3,0h353c7.67,0,15.34-.1,23,0,1.67,0,3.77.49,4.8,1.58.56.6-.41,3.09-1.19,4.43-6.82,11.83-13.78,23.57-20.64,35.37q-37.05,63.66-74.06,127.34C2482.12-16.3,2470.9,3.36,2459.57,23q-14.76,25.5-29.61,50.92-14.17,24.41-28.33,48.82-14.93,25.68-29.91,51.34c-10.82,18.54-21.75,37-32.48,55.62-10.23,17.74-20.25,35.6-30.36,53.4-1.77,3.1-3.57,3.22-5.47.13-.7-1.13-1.5-2.21-2.16-3.37-18.37-32.06-36.64-64.19-55.14-96.19s-37.25-63.83-55.81-95.79c-20.65-35.55-41.14-71.19-61.81-106.73q-29.26-50.32-58.75-100.54-23.56-40.37-47-80.79-20-34.62-39.56-69.48c-1.9-3.37-3.76-4-7.12-1.94-5.93,3.71-11.85,7.59-18.19,10.45-6.9,3.12-8.95,7.66-8.94,15.15q.33,223.74.19,447.49C1949.08,203.55,1949.32,205.67,1949.46,207.78Z" transform="translate(-1870.05 603.28)"/><path class="cls-1" d="M1949.46,207.78c-.14-2.11-.38-4.23-.38-6.34q0-223.74-.19-447.49c0-7.49,2-12,8.94-15.15,6.34-2.86,12.26-6.74,18.19-10.45,3.36-2.1,5.22-1.43,7.12,1.94q19.66,34.81,39.56,69.48,23.37,40.48,47,80.79,29.36,50.28,58.75,100.54c20.67,35.54,41.16,71.18,61.81,106.73,18.56,32,37.32,63.79,55.81,95.79s36.77,64.13,55.14,96.19c.66,1.16,1.46,2.24,2.16,3.37,1.9,3.09,3.7,3,5.47-.13,10.11-17.8,20.13-35.66,30.36-53.4,10.73-18.59,21.66-37.08,32.48-55.62q15-25.67,29.91-51.34,14.19-24.4,28.33-48.82Q2444.75,48.4,2459.57,23c11.33-19.59,22.55-39.25,33.92-58.82q37-63.71,74.06-127.34c6.86-11.8,13.82-23.54,20.64-35.37.78-1.34,1.75-3.83,1.19-4.43-1-1.09-3.13-1.55-4.8-1.58-7.66-.15-15.33,0-23,0h-353c-1,0-2,0-3,0-3.78.06-4.27,1.76-2.46,4.77,4.91,8.12,9.87,16.21,14.64,24.42,13,22.31,25.81,44.68,38.74,67q19.15,33.07,38.35,66.1c9.08,15.7,18,31.48,27.08,47.2.78,1.37,1.77,2.61,3.29,4.84,2.9-4.73,5.37-8.57,7.66-12.53,13.65-23.62,27.21-47.29,40.93-70.87,2-3.43,2.15-6.22,0-9.68-5.91-9.46-11.54-19.1-17.2-28.71-2.9-4.93-2-6.56,3.77-6.57q35.74-.06,71.48,0c5.68,0,6.57,1.7,3.66,6.63-12.88,21.79-25.92,43.48-38.65,65.35-11.21,19.28-22,38.82-33.16,58.1-11.77,20.3-23.9,40.4-35.72,60.67-6.36,10.93-12.4,22.05-18.61,33.07-.86,1.53-1.85,3-3.49,5.65-2.93-4.78-5.38-8.59-7.64-12.52q-23.34-40.43-46.61-80.9c-13.81-23.93-27.74-47.79-41.5-71.75-15-26.14-29.78-52.43-44.89-78.52q-52-89.77-104.15-179.42c-3.64-6.26-3.65-6.35,2.52-9.92q79.65-46,159.31-92,83.78-48.37,167.5-96.83c3.84-2.23,6.71-2.12,10.51.08q135.66,78.5,271.44,156.77c19.2,11.08,38.29,22.34,57.57,33.27,4.45,2.52,4.78,4.74,2.27,9q-57.37,97.91-114.47,196c-11.14,19.13-21.77,38.56-32.82,57.75-12,20.76-24.2,41.37-36.19,62.12-8.24,14.26-16.19,28.69-24.41,43q-16.3,28.35-32.85,56.56c-2.74,4.66-6.08,4.39-9-.62-4.16-7.2-8.13-14.52-12.21-21.77-.7-1.24-1.58-2.38-3-4.57-3.06,5.13-5.68,9.42-8.19,13.78-13.46,23.36-26.82,46.78-40.41,70.08-2,3.42-2.33,6-.17,9.56q17.76,29.52,35,59.35c10.51,18.15,20.73,36.47,31.11,54.69a19.75,19.75,0,0,0,2.52,2.71c1.78-2.62,3.45-4.79,4.81-7.15q22.8-39.58,45.53-79.22,21.83-37.85,43.81-75.6c17.9-30.6,36-61.08,53.89-91.7,10.16-17.39,20-35,30.07-52.41q26.6-45.82,53.37-91.53,26.32-45.12,52.62-90.27,19.17-33.07,38-66.33c2.46-4.37,4.7-5.17,9-2.41,6.44,4.14,13.38,7.52,19.75,11.75,2,1.32,3.07,4.25,4,6.66.58,1.44.16,3.29.16,5q0,222.24,0,444.49a16.33,16.33,0,0,1-1.48,7.27,37.37,37.37,0,0,1-3.08-4q-25.62-43.8-51.16-87.63c-17-29-34.1-58-51-87.12-8.46-14.52-16.59-29.22-25-43.77-1.08-1.86-3-3.26-4.5-4.87a42.93,42.93,0,0,0-3.82,5q-17.55,30.81-35,61.68c-3.13,5.5-6.38,10.93-9.62,16.35-1.71,2.87-1.57,5.42.16,8.39,18.25,31.39,36.28,62.91,54.56,94.29q35.75,61.33,71.74,122.52c3.24,5.55,3.17,5.75-2.19,8.84L2531.56,439.42q-64.93,37.51-129.81,75.13c-4.22,2.46-7.47,2.78-11.88.23Q2250.36,434,2110.7,353.41c-33.48-19.34-66.88-38.79-100.45-58-4.44-2.54-4.9-4.67-2.39-9q53.27-90.75,106.28-181.65c7.22-12.37,14.37-24.79,21.15-37.4a9.44,9.44,0,0,0-.25-7.73c-15-26.71-30.23-53.27-45.49-79.82-.75-1.3-2.27-2.15-3.43-3.22a21.7,21.7,0,0,0-2.87,3.22Q2052.07,33.66,2021,87.52q-29.73,51.23-59.58,102.38c-2.67,4.6-4.91,9.45-7.46,14.12a41,41,0,0,1-3,4.25Z" transform="translate(-1870.05 603.28)"/></svg>